<?xml version="1.0" standalone="no"?>
<!DOCTYPE svg PUBLIC "-//W3C//DTD SVG 20010904//EN"
 "http://www.w3.org/TR/2001/REC-SVG-20010904/DTD/svg10.dtd">
<svg version="1.0" xmlns="http://www.w3.org/2000/svg"
 width="720.000000pt" height="720.000000pt" viewBox="0 0 720.000000 720.000000"
 preserveAspectRatio="xMidYMid meet">

<g transform="translate(0.000000,720.000000) scale(0.100000,-0.100000)"
fill="#000000" stroke="none">
<path d="M1890 3585 l0 -1815 2340 0 2340 0 0 1815 0 1815 -2340 0 -2340 0 0
-1815z m4670 0 l0 -1805 -2330 0 -2330 0 0 1805 0 1805 2330 0 2330 0 0 -1805z"/>
<path d="M5754 5311 c-94 -23 -172 -62 -244 -122 -60 -50 -80 -83 -61 -102 8
-8 27 5 68 46 65 65 142 109 228 131 254 64 484 -6 570 -174 67 -132 58 -319
-22 -473 -51 -97 -103 -161 -483 -601 -204 -236 -336 -397 -338 -412 l-3 -24
238 -1 c149 -1 219 -4 187 -9 -267 -39 -424 -237 -386 -485 13 -84 36 -136 84
-190 70 -81 157 -121 429 -199 248 -72 310 -102 383 -188 51 -59 69 -129 64
-237 -5 -105 -32 -164 -107 -234 -96 -90 -216 -124 -405 -114 -170 8 -304 62
-419 167 -49 45 -56 48 -68 34 -12 -14 -6 -24 46 -73 121 -113 285 -173 475
-173 248 0 406 79 484 242 27 57 31 78 34 165 5 128 -18 195 -92 273 -67 71
-145 107 -396 183 -257 77 -315 103 -384 171 -68 69 -91 131 -90 243 1 108 29
179 97 249 88 90 194 126 365 126 148 0 269 -36 378 -111 37 -25 48 -29 55
-18 13 21 11 26 -18 47 -75 53 -186 98 -288 117 -68 13 -64 13 138 14 l207 1
0 25 0 25 -472 2 -471 3 324 376 c424 490 452 527 504 670 33 91 44 237 25
320 -28 120 -108 227 -208 278 -101 52 -291 66 -428 32z"/>
<path d="M3630 4839 c-927 -219 -1686 -398 -1688 -399 -2 0 -2 -14 0 -32 l3
-32 1530 -368 c842 -202 1572 -377 1623 -389 51 -12 91 -23 89 -25 -4 -4 -119
-32 -2027 -490 -630 -151 -1162 -279 -1183 -285 -35 -9 -38 -13 -35 -41 l3
-31 455 -107 c250 -59 1004 -237 1675 -394 671 -158 1228 -290 1238 -292 14
-4 17 1 17 28 l0 34 -1292 303 c-711 167 -1438 338 -1615 379 -178 42 -323 79
-323 82 0 4 33 14 73 23 39 9 764 183 1609 386 846 204 1540 371 1543 371 3 0
5 15 5 33 l0 33 -1532 369 c-843 202 -1570 377 -1616 388 -46 10 -82 21 -79
23 2 2 721 173 1598 379 877 207 1602 378 1612 381 12 4 17 16 17 40 0 19 -3
34 -7 33 -5 -1 -766 -181 -1693 -400z"/>
<path d="M1360 5381 c-79 -26 -152 -95 -170 -160 -15 -55 -11 -132 9 -176 24
-52 99 -121 147 -134 92 -26 196 1 257 66 l28 30 -23 6 c-16 5 -30 -1 -48 -18
-118 -113 -322 -38 -338 124 l-5 51 222 0 c242 0 231 -3 210 61 -30 87 -111
148 -206 155 -32 2 -69 0 -83 -5z m146 -50 c41 -18 104 -84 104 -108 0 -10
-43 -13 -190 -13 -104 0 -190 3 -190 7 0 24 59 86 103 108 61 30 116 32 173 6z"/>
<path d="M675 5133 c41 -120 75 -219 75 -220 0 -2 6 -3 13 -3 7 0 33 61 61
141 27 77 52 137 56 132 5 -4 29 -68 55 -140 26 -73 52 -133 59 -133 6 0 43
93 81 207 85 251 81 233 56 233 -18 0 -28 -24 -78 -180 -31 -98 -59 -177 -61
-175 -2 2 -26 64 -52 137 -32 89 -53 134 -64 136 -9 2 -16 -1 -16 -6 0 -6 -22
-70 -49 -144 l-49 -133 -58 183 c-53 166 -60 182 -81 182 -22 0 -20 -6 52
-217z"/>
<path d="M710 4761 c-110 -36 -180 -128 -180 -236 0 -68 22 -117 76 -172 92
-93 226 -100 323 -16 22 18 42 33 45 33 3 0 6 -18 6 -40 0 -29 4 -40 15 -40
13 0 15 31 15 220 0 189 -2 220 -15 220 -9 0 -15 -9 -15 -25 0 -31 -11 -32
-36 -4 -46 51 -168 82 -234 60z m138 -47 c144 -60 175 -239 59 -341 -100 -88
-252 -61 -314 58 -86 161 87 353 255 283z"/>
<path d="M1470 4761 c-79 -26 -152 -95 -170 -160 -15 -55 -11 -132 9 -176 24
-52 99 -121 147 -134 92 -26 196 1 257 66 l28 30 -23 6 c-16 5 -30 -1 -48 -18
-118 -113 -322 -38 -338 124 l-5 51 222 0 c242 0 231 -3 210 61 -30 87 -111
148 -206 155 -32 2 -69 0 -83 -5z m146 -50 c41 -18 104 -84 104 -108 0 -10
-43 -13 -190 -13 -104 0 -190 3 -190 7 0 24 59 86 103 108 61 30 116 32 173 6z"/>
<path d="M1100 4510 c0 -213 1 -220 20 -220 19 0 20 7 20 143 0 141 0 144 29
189 16 25 43 52 60 59 34 15 35 17 22 37 -12 20 -67 -10 -91 -51 l-20 -32 0
48 c0 40 -3 47 -20 47 -19 0 -20 -7 -20 -220z"/>
<path d="M1255 4154 c-67 -35 -95 -82 -95 -159 0 -52 19 -96 52 -119 l22 -16
-33 -34 c-59 -61 -56 -175 6 -233 l34 -33 -35 0 -36 0 0 -60 0 -60 255 0 255
0 0 65 0 65 -164 0 c-169 0 -219 9 -236 40 -17 32 -12 85 11 106 19 17 41 19
205 22 l184 3 0 65 0 64 -169 0 c-158 0 -170 1 -202 23 -28 19 -35 30 -37 63
-2 31 2 45 19 60 19 17 39 19 205 22 l184 3 0 65 0 64 -197 0 c-160 0 -204 -3
-228 -16z"/>
<path d="M1255 3316 c-65 -29 -95 -92 -95 -201 0 -84 16 -135 58 -178 26 -27
98 -54 110 -42 4 4 8 31 9 61 2 49 0 56 -21 64 -13 5 -31 19 -40 32 -30 42
-15 131 23 143 36 11 59 -11 70 -70 6 -30 16 -80 22 -111 8 -40 20 -67 44 -92
29 -32 38 -36 95 -40 115 -8 160 38 160 165 0 53 -5 77 -24 110 -23 41 -24 42
-5 48 16 5 19 16 19 66 l0 59 -197 0 c-142 -1 -207 -5 -228 -14z m301 -149
c65 -60 55 -157 -17 -157 -36 0 -64 36 -78 101 -6 28 -16 59 -21 70 -10 17 -7
19 35 19 37 0 52 -6 81 -33z"/>
<path d="M1330 2791 c-125 -38 -177 -117 -168 -251 11 -153 107 -227 283 -218
103 5 167 35 209 96 26 37 30 53 34 131 4 83 2 93 -24 141 -19 34 -42 60 -69
76 -61 35 -65 33 -65 -38 0 -55 3 -65 26 -83 56 -45 38 -145 -33 -179 -64 -31
-63 -34 -63 159 l0 175 -52 -1 c-29 0 -64 -4 -78 -8z m48 -229 l3 -102 -25 0
c-33 0 -83 44 -91 79 -9 44 18 99 57 116 18 8 38 13 43 11 6 -1 11 -48 13
-104z"/>
<path d="M1170 2080 l0 -140 -70 0 -70 0 0 -65 0 -65 258 0 c229 0 261 2 298
19 64 29 97 80 102 157 6 88 -4 129 -41 171 -46 52 -81 63 -197 63 l-100 0 0
-59 0 -59 96 -4 c86 -3 98 -5 115 -27 24 -30 24 -72 0 -102 -18 -23 -26 -24
-160 -27 l-141 -4 0 141 0 141 -45 0 -45 0 0 -140z"/>
</g>
</svg>
